<?xml version="1.0" encoding="utf-8"?>
<!-- Generator: Adobe Illustrator 16.0.0, SVG Export Plug-In . SVG Version: 6.00 Build 0)  -->
<!DOCTYPE svg PUBLIC "-//W3C//DTD SVG 1.1//EN" "http://www.w3.org/Graphics/SVG/1.1/DTD/svg11.dtd">
<svg version="1.1" id="Layer_1" xmlns="http://www.w3.org/2000/svg" xmlns:xlink="http://www.w3.org/1999/xlink" x="0px" y="0px"
	 width="194px" height="108px" viewBox="0 0 194 108" enable-background="new 0 0 194 108" xml:space="preserve">
<g>
	<path fill="#1F3465" d="M64.111,52.869c0.32,7.262,3.871,10.568,10.246,10.568c4.598,0,8.309-2.822,9.035-5.402h10.082
		c-3.227,9.84-10.082,14.035-19.52,14.035c-13.148,0-21.297-9.035-21.297-21.943c0-12.504,8.629-22.021,21.297-22.021
		c14.197,0,21.053,11.938,20.248,24.764H64.111z M82.748,45.611c-1.051-5.811-3.551-8.875-9.117-8.875
		c-7.26,0-9.357,5.647-9.52,8.875H82.748z"/>
	<polygon fill="#1F3465" points="50.256,35.52 12.916,23.48 12.916,34.027 38.838,42.334 12.916,50.674 12.916,51.564 
		12.916,61.146 12.916,61.219 39.572,52.625 50.256,49.21 50.256,49.181 50.256,35.594 50.256,35.521 50.256,35.52 	"/>
	<rect x="12.916" y="61.221" fill="#1F3465" width="37.34" height="9.703"/>
	<path fill="#1F3465" d="M121.434,28.104c-5.162,0-10.326,1.936-13.148,6.211h-0.164V13.342l0,0v0.01l-11.455,3.694v53.896h10.891
		v-5.326h0.164c2.5,4.6,7.582,6.455,13.713,6.455c8.309,0,17.264-6.695,17.264-22.023C138.697,34.801,129.742,28.104,121.434,28.104
		 M117.48,63.438c-6.775,0-9.76-6.373-9.76-13.311c0-7.018,2.984-13.392,9.76-13.392s9.762,6.374,9.762,13.392
		C127.242,57.064,124.256,63.438,117.48,63.438"/>
	<path fill="#1F3465" d="M168.768,51.097c0,8.47-2.66,11.938-8.873,11.938c-5.324,0-7.342-3.389-7.342-10.246V29.235l0,0v0.003
		l-11.455,3.693v21.955c0,10.326,3.064,17.184,15.248,17.184c4.838,0,9.842-2.26,12.746-6.938h0.24v5.809h10.891V29.236
		l-11.455,3.693V51.097z"/>
	<path fill="#1E3565" d="M13.123,82.768h5.359c1.49,0,2.646,0.42,3.418,1.189c0.652,0.654,1.004,1.574,1.004,2.68v0.033
		c0,1.893-1.021,3.082-2.512,3.635l2.863,4.188H20.24l-2.512-3.752h-0.033h-1.994v3.752h-2.578V82.768z M18.314,88.463
		c1.258,0,1.977-0.67,1.977-1.658v-0.033c0-1.105-0.77-1.676-2.027-1.676h-2.563v3.367H18.314z"/>
	<polygon fill="#1E3565" points="25.232,82.768 34.076,82.768 34.076,85.063 27.795,85.063 27.795,87.441 33.322,87.441 
		33.322,89.736 27.795,89.736 27.795,92.197 34.158,92.197 34.158,94.492 25.232,94.492 	"/>
	<polygon fill="#1E3565" points="36.455,82.768 39.033,82.768 39.033,92.146 44.877,92.146 44.877,94.492 36.455,94.492 	"/>
	<rect x="46.939" y="82.768" fill="#1E3565" width="2.578" height="11.725"/>
	<path fill="#1E3565" d="M56.469,82.686h2.377l5.025,11.807h-2.697l-1.07-2.631h-4.957l-1.074,2.631h-2.629L56.469,82.686z
		 M59.182,89.584l-1.559-3.801l-1.557,3.801H59.182z"/>
	<path fill="#1E3565" d="M65.682,82.768h5.441c1.34,0,2.395,0.369,3.066,1.039c0.535,0.535,0.803,1.189,0.803,1.992v0.035
		c0,1.322-0.703,2.059-1.541,2.527c1.355,0.52,2.195,1.307,2.195,2.881v0.033c0,2.145-1.742,3.217-4.391,3.217h-5.574V82.768z
		 M70.57,87.508c1.139,0,1.859-0.369,1.859-1.24v-0.033c0-0.77-0.604-1.205-1.691-1.205h-2.545v2.479H70.57z M71.256,92.23
		c1.141,0,1.826-0.402,1.826-1.271v-0.035c0-0.787-0.584-1.271-1.908-1.271h-2.98v2.578H71.256z"/>
	<polygon fill="#1E3565" points="77.771,82.768 80.352,82.768 80.352,92.146 86.197,92.146 86.197,94.492 77.771,94.492 	"/>
	<polygon fill="#1E3565" points="88.139,82.768 96.982,82.768 96.982,85.063 90.701,85.063 90.701,87.441 96.229,87.441 
		96.229,89.736 90.701,89.736 90.701,92.197 97.066,92.197 97.066,94.492 88.139,94.492 	"/>
	<rect x="98.992" y="91.813" fill="#1F3465" width="2.713" height="2.68"/>
	<path fill="#1E3565" d="M113.195,82.686h2.377l5.025,11.807H117.9l-1.07-2.631h-4.959l-1.072,2.631h-2.629L113.195,82.686z
		 M115.908,89.584l-1.559-3.801l-1.557,3.801H115.908z"/>
	<polygon fill="#1E3565" points="122.408,82.768 124.986,82.768 124.986,92.146 130.832,92.146 130.832,94.492 122.408,94.492 	"/>
	<polygon fill="#1E3565" points="130.195,82.768 132.959,82.768 135.387,90.707 138.016,82.734 140.227,82.734 142.857,90.707 
		145.285,82.768 147.982,82.768 143.979,94.576 141.734,94.576 139.088,86.904 136.441,94.576 134.197,94.576 	"/>
	<path fill="#1E3565" d="M152.404,82.686h2.377l5.025,11.807h-2.697l-1.072-2.631h-4.957l-1.072,2.631h-2.629L152.404,82.686z
		 M155.117,89.584l-1.559-3.801l-1.557,3.801H155.117z"/>
	<polygon fill="#1E3565" points="163.072,89.869 158.568,82.768 161.582,82.768 164.379,87.475 167.227,82.768 170.158,82.768 
		165.652,89.818 165.652,94.492 163.072,94.492 	"/>
	<path fill="#1E3565" d="M170.375,92.783l1.525-1.824c1.055,0.869,2.16,1.422,3.5,1.422c1.055,0,1.691-0.418,1.691-1.105v-0.033
		c0-0.652-0.402-0.988-2.363-1.49c-2.359-0.604-3.885-1.256-3.885-3.584v-0.033c0-2.127,1.709-3.535,4.104-3.535
		c1.709,0,3.166,0.537,4.355,1.492l-1.34,1.941c-1.039-0.719-2.061-1.154-3.049-1.154s-1.508,0.451-1.508,1.021v0.033
		c0,0.771,0.502,1.021,2.529,1.541c2.379,0.619,3.719,1.473,3.719,3.518v0.033c0,2.328-1.775,3.633-4.305,3.633
		C173.574,94.658,171.783,94.039,170.375,92.783"/>
	<rect x="181.529" y="91.813" fill="#1F3465" width="2.715" height="2.68"/>
</g>
</svg>
